<svg width="881" height="240" viewBox="0 0 881 240" fill="none" xmlns="http://www.w3.org/2000/svg">
<path d="M265.944 112.204C262.661 112.204 259.614 111.644 256.806 110.523C254.04 109.358 251.62 107.763 249.546 105.736C247.472 103.666 245.852 101.229 244.685 98.4257C243.562 95.5793 243 92.4742 243 89.1104C243 85.7465 243.583 82.6629 244.75 79.8597C245.917 77.0565 247.537 74.6414 249.611 72.6145C251.685 70.5444 254.105 68.9487 256.87 67.8275C259.679 66.7062 262.704 66.1455 265.944 66.1455C269.272 66.1455 272.318 66.7277 275.083 67.8921C277.892 69.0134 280.29 70.6522 282.278 72.8086C284.265 74.9649 285.735 77.574 286.685 80.636L277.935 83.353C276.898 80.3772 275.343 78.1347 273.269 76.6252C271.238 75.0727 268.818 74.2964 266.009 74.2964C263.373 74.2964 261.019 74.9217 258.944 76.1724C256.914 77.3799 255.315 79.0835 254.148 81.2829C252.981 83.4824 252.398 86.0915 252.398 89.1104C252.398 92.1292 252.96 94.7599 254.083 97.0025C255.25 99.245 256.849 100.992 258.88 102.242C260.911 103.45 263.244 104.054 265.88 104.054C268.645 104.054 271.13 103.277 273.333 101.725C275.537 100.129 277.179 97.9297 278.259 95.1265L287.139 97.1966C286.188 100.388 284.654 103.105 282.537 105.347C280.42 107.59 277.935 109.293 275.083 110.458C272.231 111.622 269.185 112.204 265.944 112.204ZM308.063 112.204C304.909 112.204 302.122 111.428 299.702 109.876C297.282 108.28 295.381 106.102 293.999 103.342C292.616 100.539 291.925 97.3691 291.925 93.8327C291.925 90.2532 292.616 87.0834 293.999 84.3233C295.381 81.5632 297.282 79.4069 299.702 77.8544C302.122 76.2586 304.909 75.4608 308.063 75.4608C310.915 75.4608 313.4 76.194 315.517 77.6603C317.634 79.1266 319.169 81.1535 320.119 83.7411V75.9137H329.323V111.752H324.915C323.446 111.752 322.28 111.321 321.415 110.458C320.551 109.552 320.119 108.367 320.119 106.9V103.86C319.169 106.491 317.634 108.539 315.517 110.005C313.4 111.472 310.915 112.204 308.063 112.204ZM310.656 104.248C312.341 104.248 313.897 103.838 315.323 103.019C316.749 102.199 317.894 101.013 318.758 99.4607C319.665 97.9081 320.119 96.0321 320.119 93.8327C320.119 91.5901 319.665 89.6926 318.758 88.14C317.894 86.5875 316.749 85.423 315.323 84.6468C313.897 83.8274 312.341 83.4177 310.656 83.4177C309.057 83.4177 307.523 83.8274 306.054 84.6468C304.628 85.423 303.462 86.5875 302.554 88.14C301.69 89.6926 301.258 91.5901 301.258 93.8327C301.258 96.0321 301.69 97.9081 302.554 99.4607C303.462 101.013 304.628 102.199 306.054 103.019C307.523 103.838 309.057 104.248 310.656 104.248ZM338.185 111.752V75.9137H347.324V111.752H338.185ZM345.38 94.9971L347.324 84.1292C348.145 81.4554 349.528 79.3422 351.472 77.7897C353.46 76.2371 355.815 75.4608 358.537 75.4608V85.0349C358.148 84.9055 357.759 84.8408 357.37 84.8408C357.025 84.7977 356.657 84.7761 356.269 84.7761C354.583 84.7761 353.05 85.1643 351.667 85.9406C350.327 86.7168 349.269 87.8597 348.491 89.3691C347.713 90.8786 347.324 92.7546 347.324 94.9971H345.38ZM364.643 111.752V75.9137H373.781V83.4824C374.344 81.8867 375.207 80.485 376.374 79.2775C377.541 78.07 378.881 77.1428 380.393 76.4959C381.905 75.8058 383.461 75.4608 385.059 75.4608C388.344 75.4608 391.087 76.388 393.291 78.2425C395.494 80.0538 396.856 82.5336 397.374 85.6818C397.893 83.5255 398.757 81.6926 399.967 80.1832C401.177 78.6737 402.646 77.5093 404.374 76.6899C406.103 75.8705 407.961 75.4608 409.948 75.4608C414.269 75.4608 417.683 76.7762 420.189 79.4069C422.738 82.0376 424.013 85.8112 424.013 90.7276V111.752H414.874V92.4742C414.874 89.5848 414.14 87.3206 412.67 85.6818C411.201 84.043 409.279 83.2236 406.902 83.2236C404.482 83.2236 402.538 84.1724 401.069 86.0699C399.6 87.9244 398.865 90.2748 398.865 93.1211V111.752H389.791V92.4742C389.791 89.5848 389.056 87.3206 387.587 85.6818C386.118 84.043 384.195 83.2236 381.819 83.2236C380.22 83.2236 378.816 83.6548 377.606 84.5174C376.396 85.3799 375.445 86.5659 374.754 88.0753C374.106 89.5416 373.781 91.2235 373.781 93.1211V111.752H364.643ZM449.606 112.204C446.84 112.204 444.269 111.773 441.893 110.911C439.559 110.048 437.506 108.819 435.735 107.223C434.006 105.628 432.645 103.73 431.652 101.531C430.701 99.2882 430.225 96.8084 430.225 94.0915C430.225 91.2882 430.723 88.7437 431.717 86.4581C432.71 84.1724 434.093 82.2101 435.865 80.5713C437.636 78.9325 439.667 77.6818 441.957 76.8193C444.247 75.9137 446.667 75.4608 449.217 75.4608C451.377 75.4608 453.408 75.7627 455.309 76.3665C457.21 76.9271 458.874 77.7466 460.3 78.8247C461.769 79.8597 462.893 81.1104 463.67 82.5767C464.491 84.043 464.902 85.6387 464.902 87.3637C464.902 89.6063 464.254 91.4823 462.957 92.9917C461.661 94.5012 459.932 95.7087 457.772 96.6144C455.655 97.4769 453.321 98.0806 450.772 98.4257C448.223 98.7275 445.717 98.8354 443.254 98.7491C442.865 98.706 442.411 98.6844 441.893 98.6844C441.374 98.6844 440.899 98.6844 440.467 98.6844C440.078 98.6413 439.819 98.6197 439.689 98.6197C439.948 99.7841 440.553 100.862 441.504 101.854C442.497 102.846 443.707 103.622 445.133 104.183C446.559 104.701 448.093 104.959 449.735 104.959C451.161 104.959 452.544 104.722 453.883 104.248C455.223 103.773 456.454 103.126 457.578 102.307C458.744 101.444 459.695 100.517 460.43 99.5254L466.717 104.248C465.334 106.059 463.735 107.569 461.92 108.776C460.106 109.94 458.161 110.803 456.087 111.364C454.013 111.924 451.852 112.204 449.606 112.204ZM443.578 92.2155C445.004 92.2155 446.43 92.1508 447.856 92.0214C449.325 91.892 450.664 91.6548 451.874 91.3098C453.127 90.9217 454.121 90.4041 454.856 89.7572C455.633 89.0672 456.022 88.2047 456.022 87.1697C456.022 86.3071 455.719 85.5524 455.115 84.9055C454.553 84.2155 453.775 83.6764 452.781 83.2883C451.831 82.857 450.729 82.6414 449.476 82.6414C447.488 82.6414 445.717 83.0942 444.161 83.9999C442.649 84.9055 441.46 86.0915 440.596 87.5578C439.732 88.981 439.256 90.4688 439.17 92.0214C439.689 92.0645 440.337 92.1077 441.115 92.1508C441.893 92.1939 442.713 92.2155 443.578 92.2155ZM472.688 111.752V75.9137H481.827V83.4824C482.389 81.8867 483.253 80.485 484.42 79.2775C485.587 78.07 486.948 77.1428 488.503 76.4959C490.059 75.8058 491.658 75.4608 493.3 75.4608C496.022 75.4608 498.399 76.0646 500.429 77.2721C502.503 78.4797 504.102 80.2263 505.225 82.512C506.349 84.7546 506.911 87.4715 506.911 90.6629V111.752H497.837V92.3448C497.837 89.4985 497.102 87.2775 495.633 85.6818C494.164 84.043 492.241 83.2236 489.864 83.2236C488.266 83.2236 486.862 83.6548 485.651 84.5174C484.442 85.3368 483.491 86.4797 482.8 87.9459C482.151 89.4122 481.827 91.0942 481.827 92.9917V111.752H472.688ZM561.902 66.5984H571.624L555.096 111.752H543.948L527.356 66.5984H537.143L549.522 102.501L561.902 66.5984ZM577.568 111.752V75.9137H586.772V111.752H577.568ZM582.235 71.5795C580.42 71.5795 578.907 71.0404 577.698 69.9622C576.488 68.8409 575.883 67.4608 575.883 65.8221C575.883 64.1833 576.488 62.8032 577.698 61.6819C578.907 60.5606 580.42 60 582.235 60C584.05 60 585.562 60.5606 586.772 61.6819C587.981 62.8032 588.587 64.1833 588.587 65.8221C588.587 67.4608 587.981 68.8409 586.772 69.9622C585.562 71.0404 584.05 71.5795 582.235 71.5795ZM609.604 112.204C606.45 112.204 603.663 111.428 601.243 109.876C598.823 108.28 596.922 106.102 595.539 103.342C594.156 100.539 593.465 97.3691 593.465 93.8327C593.465 90.2532 594.156 87.0834 595.539 84.3233C596.922 81.5632 598.823 79.4069 601.243 77.8544C603.663 76.2586 606.45 75.4608 609.604 75.4608C612.456 75.4608 614.941 76.194 617.058 77.6603C619.175 79.1266 620.709 81.1535 621.66 83.7411V75.9137H630.863V111.752H626.456C624.987 111.752 623.82 111.321 622.956 110.458C622.092 109.552 621.66 108.367 621.66 106.9V103.86C620.709 106.491 619.175 108.539 617.058 110.005C614.941 111.472 612.456 112.204 609.604 112.204ZM612.197 104.248C613.882 104.248 615.438 103.838 616.863 103.019C618.289 102.199 619.434 101.013 620.299 99.4607C621.206 97.9081 621.66 96.0321 621.66 93.8327C621.66 91.5901 621.206 89.6926 620.299 88.14C619.434 86.5875 618.289 85.423 616.863 84.6468C615.438 83.8274 613.882 83.4177 612.197 83.4177C610.598 83.4177 609.064 83.8274 607.595 84.6468C606.169 85.423 605.002 86.5875 604.095 88.14C603.231 89.6926 602.799 91.5901 602.799 93.8327C602.799 96.0321 603.231 97.9081 604.095 99.4607C605.002 101.013 606.169 102.199 607.595 103.019C609.064 103.838 610.598 104.248 612.197 104.248ZM639.726 111.752V75.9137H648.865V83.4824C649.426 81.8867 650.291 80.485 651.457 79.2775C652.624 78.07 653.963 77.1428 655.476 76.4959C656.988 75.8058 658.544 75.4608 660.143 75.4608C663.426 75.4608 666.17 76.388 668.374 78.2425C670.578 80.0538 671.939 82.5336 672.457 85.6818C672.976 83.5255 673.84 81.6926 675.05 80.1832C676.26 78.6737 677.729 77.5093 679.457 76.6899C681.186 75.8705 683.044 75.4608 685.032 75.4608C689.352 75.4608 692.766 76.7762 695.272 79.4069C697.822 82.0376 699.096 85.8112 699.096 90.7276V111.752H689.957V92.4742C689.957 89.5848 689.223 87.3206 687.754 85.6818C686.285 84.043 684.362 83.2236 681.985 83.2236C679.565 83.2236 677.621 84.1724 676.152 86.0699C674.683 87.9244 673.948 90.2748 673.948 93.1211V111.752H664.874V92.4742C664.874 89.5848 664.139 87.3206 662.67 85.6818C661.201 84.043 659.278 83.2236 656.902 83.2236C655.303 83.2236 653.899 83.6548 652.689 84.5174C651.479 85.3799 650.528 86.5659 649.837 88.0753C649.189 89.5416 648.865 91.2235 648.865 93.1211V111.752H639.726ZM723.588 112.204C720.13 112.204 717.019 111.45 714.255 109.94C711.532 108.431 709.347 106.296 707.708 103.536C706.106 100.776 705.31 97.52 705.31 93.768C705.31 90.016 706.13 86.7815 707.773 84.0646C709.412 81.3045 711.639 79.1913 714.449 77.725C717.255 76.2155 720.389 75.4608 723.847 75.4608C727.301 75.4608 730.412 76.2155 733.181 77.725C735.986 79.1913 738.213 81.3045 739.856 84.0646C741.495 86.7815 742.319 90.016 742.319 93.768C742.319 97.52 741.477 100.776 739.792 103.536C738.148 106.296 735.903 108.431 733.051 109.94C730.241 111.45 727.088 112.204 723.588 112.204ZM723.588 104.248C725.185 104.248 726.699 103.881 728.125 103.148C729.551 102.372 730.718 101.207 731.625 99.6548C732.532 98.0591 732.986 96.0968 732.986 93.768C732.986 91.4392 732.532 89.4985 731.625 87.9459C730.759 86.3934 729.616 85.2506 728.19 84.5174C726.806 83.7411 725.315 83.353 723.718 83.353C722.116 83.353 720.625 83.7411 719.245 84.5174C717.903 85.2506 716.801 86.3934 715.94 87.9459C715.074 89.4985 714.644 91.4392 714.644 93.768C714.644 96.0968 715.051 98.0591 715.875 99.6548C716.694 101.207 717.773 102.372 719.116 103.148C720.495 103.881 721.986 104.248 723.588 104.248ZM748.912 111.752V75.9137H758.051V83.4824C758.611 81.8867 759.477 80.485 760.644 79.2775C761.81 78.07 763.171 77.1428 764.727 76.4959C766.282 75.8058 767.88 75.4608 769.523 75.4608C772.245 75.4608 774.62 76.0646 776.653 77.2721C778.727 78.4797 780.324 80.2263 781.449 82.512C782.569 84.7546 783.134 87.4715 783.134 90.6629V111.752H774.06V92.3448C774.06 89.4985 773.324 87.2775 771.856 85.6818C770.384 84.043 768.463 83.2236 766.088 83.2236C764.486 83.2236 763.083 83.6548 761.875 84.5174C760.662 85.3368 759.713 86.4797 759.023 87.9459C758.375 89.4122 758.051 91.0942 758.051 92.9917V111.752H748.912ZM805.44 112.204C802.069 112.204 799.389 111.213 797.403 109.229C795.458 107.202 794.486 104.334 794.486 100.625V83.353H788.912V75.9137H811.662V83.353H803.755V100.949C803.755 102.07 804.079 102.911 804.727 103.471C805.375 104.032 806.107 104.312 806.931 104.312C807.449 104.312 807.921 104.226 808.356 104.054C808.829 103.881 809.282 103.622 809.718 103.277L812.958 109.552C811.833 110.458 810.667 111.126 809.458 111.558C808.245 111.989 806.907 112.204 805.44 112.204ZM791.634 78.76V75.9137C792.583 75.9137 793.319 75.6333 793.838 75.0727C794.398 74.512 794.681 73.7573 794.681 72.8086V67.0512H803.755V71.3207C803.755 71.9676 803.579 72.6145 803.236 73.2614C802.931 73.9083 802.5 74.4689 801.94 74.9433C801.375 75.4177 800.708 75.7412 799.931 75.9137L791.634 78.76ZM835.838 112.204C833.069 112.204 830.5 111.773 828.125 110.911C825.792 110.048 823.736 108.819 821.968 107.223C820.236 105.628 818.875 103.73 817.884 101.531C816.931 99.2882 816.458 96.8084 816.458 94.0915C816.458 91.2882 816.954 88.7437 817.949 86.4581C818.94 84.1724 820.324 82.2101 822.097 80.5713C823.866 78.9325 825.898 77.6818 828.19 76.8193C830.477 75.9137 832.898 75.4608 835.449 75.4608C837.606 75.4608 839.639 75.7627 841.542 76.3665C843.44 76.9271 845.106 77.7466 846.532 78.8247C848 79.8597 849.125 81.1104 849.903 82.5767C850.722 84.043 851.134 85.6387 851.134 87.3637C851.134 89.6063 850.486 91.4823 849.19 92.9917C847.893 94.5012 846.162 95.7087 844.005 96.6144C841.884 97.4769 839.551 98.0806 837.005 98.4257C834.454 98.7275 831.949 98.8354 829.486 98.7491C829.097 98.706 828.644 98.6844 828.125 98.6844C827.606 98.6844 827.13 98.6844 826.699 98.6844C826.31 98.6413 826.051 98.6197 825.921 98.6197C826.181 99.7841 826.782 100.862 827.736 101.854C828.727 102.846 829.94 103.622 831.366 104.183C832.792 104.701 834.324 104.959 835.968 104.959C837.393 104.959 838.773 104.722 840.116 104.248C841.454 103.773 842.685 103.126 843.81 102.307C844.977 101.444 845.926 100.517 846.662 99.5254L852.949 104.248C851.565 106.059 849.968 107.569 848.153 108.776C846.338 109.94 844.393 110.803 842.319 111.364C840.245 111.924 838.083 112.204 835.838 112.204ZM829.81 92.2155C831.236 92.2155 832.662 92.1508 834.088 92.0214C835.556 91.892 836.894 91.6548 838.106 91.3098C839.356 90.9217 840.352 90.4041 841.088 89.7572C841.866 89.0672 842.255 88.2047 842.255 87.1697C842.255 86.3071 841.949 85.5524 841.347 84.9055C840.782 84.2155 840.005 83.6764 839.014 83.2883C838.06 82.857 836.958 82.6414 835.708 82.6414C833.718 82.6414 831.949 83.0942 830.394 83.9999C828.88 84.9055 827.69 86.0915 826.829 87.5578C825.963 88.981 825.486 90.4688 825.403 92.0214C825.921 92.0645 826.569 92.1077 827.347 92.1508C828.125 92.1939 828.944 92.2155 829.81 92.2155ZM246.306 181.062V134.485H264.843C268.17 134.485 271 135.025 273.333 136.103C275.667 137.181 277.438 138.734 278.648 140.76C279.901 142.787 280.528 145.224 280.528 148.07C280.528 150.917 279.901 153.375 278.648 155.445C277.438 157.472 275.667 159.046 273.333 160.167C271 161.289 268.17 161.849 264.843 161.849H250.194V157.192H264.648C268.105 157.192 270.719 156.415 272.491 154.863C274.306 153.267 275.213 151.003 275.213 148.07C275.213 145.138 274.327 142.917 272.556 141.407C270.784 139.898 268.148 139.143 264.648 139.143H251.62V181.062H246.306ZM298.145 181.709C294.083 181.709 290.843 180.782 288.423 178.927C286.003 177.03 284.621 174.356 284.275 170.906H289.266C289.568 173.019 290.497 174.636 292.053 175.757C293.608 176.879 295.682 177.439 298.275 177.439C300.565 177.439 302.358 177.008 303.655 176.146C304.951 175.283 305.599 174.054 305.599 172.458C305.599 171.337 305.231 170.367 304.497 169.547C303.763 168.685 302.294 167.973 300.09 167.412L294.775 166.054C291.75 165.278 289.481 164.092 287.969 162.496C286.457 160.858 285.701 158.917 285.701 156.674C285.701 153.828 286.759 151.585 288.877 149.946C290.994 148.264 293.868 147.423 297.497 147.423C301.083 147.423 304 148.286 306.247 150.011C308.494 151.736 309.769 154.13 310.071 157.192H305.081C304.778 155.424 303.957 154.065 302.618 153.116C301.278 152.167 299.506 151.693 297.303 151.693C295.185 151.693 293.544 152.103 292.377 152.922C291.21 153.698 290.627 154.82 290.627 156.286C290.627 157.407 291.037 158.378 291.858 159.197C292.722 160.017 294.148 160.706 296.136 161.267L301.321 162.69C304.389 163.51 306.701 164.76 308.256 166.442C309.812 168.124 310.59 170.151 310.59 172.523C310.59 175.413 309.488 177.677 307.284 179.315C305.081 180.911 302.034 181.709 298.145 181.709ZM318.074 181.062V148.07H323.259V181.062H318.074ZM317.685 140.566V134.485H323.648V140.566H317.685ZM346.611 181.709C343.586 181.709 340.885 180.976 338.509 179.509C336.175 178 334.317 175.952 332.935 173.364C331.595 170.733 330.925 167.758 330.925 164.437C330.925 161.116 331.595 158.184 332.935 155.639C334.317 153.095 336.175 151.089 338.509 149.623C340.885 148.157 343.564 147.423 346.546 147.423C349.009 147.423 351.212 147.898 353.157 148.847C355.144 149.796 356.765 151.154 358.018 152.922C359.314 154.647 360.135 156.674 360.481 159.003H355.685C355.252 156.89 354.259 155.165 352.703 153.828C351.148 152.491 349.138 151.822 346.675 151.822C344.558 151.822 342.722 152.34 341.166 153.375C339.611 154.41 338.4 155.876 337.537 157.774C336.672 159.671 336.24 161.893 336.24 164.437C336.24 166.981 336.672 169.224 337.537 171.164C338.4 173.105 339.611 174.615 341.166 175.693C342.765 176.771 344.623 177.31 346.74 177.31C349.117 177.31 351.104 176.663 352.703 175.369C354.302 174.033 355.317 172.308 355.75 170.194H360.546C360.157 172.48 359.293 174.507 357.953 176.275C356.657 178 355.037 179.337 353.092 180.286C351.148 181.235 348.987 181.709 346.611 181.709ZM381.692 181.709C378.451 181.709 375.599 180.954 373.136 179.445C370.673 177.936 368.75 175.887 367.368 173.299C366.028 170.669 365.358 167.715 365.358 164.437C365.358 161.116 366.05 158.184 367.432 155.639C368.815 153.095 370.716 151.089 373.136 149.623C375.599 148.157 378.451 147.423 381.692 147.423C384.975 147.423 387.827 148.157 390.247 149.623C392.71 151.089 394.611 153.095 395.951 155.639C397.333 158.184 398.025 161.116 398.025 164.437C398.025 167.715 397.333 170.669 395.951 173.299C394.611 175.887 392.71 177.936 390.247 179.445C387.827 180.954 384.975 181.709 381.692 181.709ZM381.692 177.31C383.938 177.31 385.883 176.771 387.525 175.693C389.167 174.572 390.442 173.04 391.349 171.1C392.256 169.159 392.71 166.917 392.71 164.372C392.71 160.577 391.694 157.537 389.664 155.251C387.676 152.965 385.019 151.822 381.692 151.822C378.407 151.822 375.75 152.965 373.719 155.251C371.688 157.537 370.673 160.577 370.673 164.372C370.673 166.917 371.127 169.159 372.034 171.1C372.942 173.04 374.216 174.572 375.858 175.693C377.544 176.771 379.488 177.31 381.692 177.31ZM426.089 181.062C425.916 180.329 425.786 179.488 425.7 178.539C425.656 177.59 425.635 176.383 425.635 174.916H425.311V159.132C425.311 156.631 424.728 154.798 423.561 153.634C422.437 152.426 420.601 151.822 418.052 151.822C415.545 151.822 413.536 152.34 412.024 153.375C410.555 154.367 409.734 155.79 409.561 157.644H404.57C404.786 154.453 406.126 151.952 408.589 150.14C411.052 148.329 414.271 147.423 418.246 147.423C422.351 147.423 425.397 148.394 427.385 150.334C429.373 152.275 430.367 155.186 430.367 159.068V174.916C430.367 175.866 430.431 176.857 430.561 177.892C430.691 178.884 430.863 179.941 431.08 181.062H426.089ZM414.746 181.709C411.332 181.709 408.61 180.89 406.58 179.251C404.592 177.569 403.598 175.283 403.598 172.394C403.598 169.504 404.592 167.262 406.58 165.666C408.567 164.07 411.462 162.949 415.265 162.302L426.802 160.361V164.631L416.043 166.313C413.623 166.701 411.786 167.348 410.533 168.253C409.28 169.159 408.654 170.475 408.654 172.2C408.654 173.881 409.215 175.154 410.339 176.016C411.506 176.879 413.212 177.31 415.459 177.31C418.354 177.31 420.709 176.663 422.524 175.369C424.382 174.033 425.311 172.308 425.311 170.194L426.154 174.787C425.462 176.987 424.101 178.69 422.07 179.898C420.082 181.105 417.641 181.709 414.746 181.709ZM440.361 181.062V148.07H445.222V155.833H445.546V181.062H440.361ZM464.019 181.062V159.456C464.019 156.954 463.392 155.078 462.139 153.828C460.886 152.577 459.028 151.952 456.565 151.952C454.404 151.952 452.481 152.426 450.796 153.375C449.154 154.324 447.858 155.639 446.907 157.321C446 159.003 445.546 160.965 445.546 163.208L444.704 155.38C445.827 152.922 447.534 150.981 449.824 149.558C452.157 148.135 454.793 147.423 457.731 147.423C461.188 147.423 463.954 148.415 466.028 150.399C468.145 152.34 469.204 154.906 469.204 158.097V181.062H464.019ZM499.258 181.062C499.086 180.329 498.956 179.488 498.869 178.539C498.826 177.59 498.805 176.383 498.805 174.916H498.481V159.132C498.481 156.631 497.897 154.798 496.731 153.634C495.607 152.426 493.771 151.822 491.221 151.822C488.715 151.822 486.706 152.34 485.194 153.375C483.725 154.367 482.904 155.79 482.731 157.644H477.74C477.956 154.453 479.295 151.952 481.758 150.14C484.221 148.329 487.441 147.423 491.416 147.423C495.521 147.423 498.567 148.394 500.555 150.334C502.543 152.275 503.536 155.186 503.536 159.068V174.916C503.536 175.866 503.601 176.857 503.731 177.892C503.86 178.884 504.033 179.941 504.249 181.062H499.258ZM487.916 181.709C484.502 181.709 481.78 180.89 479.749 179.251C477.762 177.569 476.768 175.283 476.768 172.394C476.768 169.504 477.762 167.262 479.749 165.666C481.737 164.07 484.632 162.949 488.434 162.302L499.971 160.361V164.631L489.212 166.313C486.793 166.701 484.956 167.348 483.703 168.253C482.45 169.159 481.823 170.475 481.823 172.2C481.823 173.881 482.385 175.154 483.508 176.016C484.675 176.879 486.382 177.31 488.629 177.31C491.524 177.31 493.879 176.663 495.694 175.369C497.552 174.033 498.481 172.308 498.481 170.194L499.323 174.787C498.632 176.987 497.271 178.69 495.24 179.898C493.252 181.105 490.811 181.709 487.916 181.709ZM490.832 143.348H485.906L493.231 133.192H501.203L490.832 143.348ZM513.531 181.062V134.485H518.716V181.062H513.531ZM529.102 181.062V148.07H534.287V181.062H529.102ZM528.713 140.566V134.485H534.676V140.566H528.713ZM555.886 181.709C551.824 181.709 548.583 180.782 546.163 178.927C543.744 177.03 542.361 174.356 542.015 170.906H547.006C547.308 173.019 548.238 174.636 549.793 175.757C551.349 176.879 553.423 177.439 556.015 177.439C558.305 177.439 560.099 177.008 561.395 176.146C562.691 175.283 563.339 174.054 563.339 172.458C563.339 171.337 562.972 170.367 562.237 169.547C561.503 168.685 560.034 167.973 557.83 167.412L552.515 166.054C549.49 165.278 547.222 164.092 545.71 162.496C544.197 160.858 543.441 158.917 543.441 156.674C543.441 153.828 544.5 151.585 546.617 149.946C548.734 148.264 551.608 147.423 555.237 147.423C558.824 147.423 561.74 148.286 563.988 150.011C566.234 151.736 567.509 154.13 567.812 157.192H562.821C562.518 155.424 561.697 154.065 560.358 153.116C559.018 152.167 557.247 151.693 555.043 151.693C552.925 151.693 551.284 152.103 550.117 152.922C548.95 153.698 548.367 154.82 548.367 156.286C548.367 157.407 548.777 158.378 549.599 159.197C550.463 160.017 551.888 160.706 553.876 161.267L559.062 162.69C562.129 163.51 564.441 164.76 565.997 166.442C567.552 168.124 568.33 170.151 568.33 172.523C568.33 175.413 567.228 177.677 565.025 179.315C562.821 180.911 559.775 181.709 555.886 181.709ZM575.814 181.062V148.07H580.999V181.062H575.814ZM575.425 140.566V134.485H581.388V140.566H575.425ZM602.598 181.709C598.536 181.709 595.295 180.782 592.875 178.927C590.456 177.03 589.073 174.356 588.727 170.906H593.718C594.02 173.019 594.95 174.636 596.505 175.757C598.061 176.879 600.135 177.439 602.727 177.439C605.018 177.439 606.811 177.008 608.107 176.146C609.403 175.283 610.051 174.054 610.051 172.458C610.051 171.337 609.684 170.367 608.95 169.547C608.215 168.685 606.746 167.973 604.542 167.412L599.227 166.054C596.203 165.278 593.934 164.092 592.422 162.496C590.909 160.858 590.153 158.917 590.153 156.674C590.153 153.828 591.212 151.585 593.329 149.946C595.446 148.264 598.32 147.423 601.95 147.423C605.536 147.423 608.453 148.286 610.7 150.011C612.946 151.736 614.221 154.13 614.524 157.192H609.533C609.231 155.424 608.409 154.065 607.07 153.116C605.731 152.167 603.959 151.693 601.755 151.693C599.638 151.693 597.996 152.103 596.829 152.922C595.663 153.698 595.079 154.82 595.079 156.286C595.079 157.407 595.49 158.378 596.311 159.197C597.175 160.017 598.601 160.706 600.588 161.267L605.774 162.69C608.842 163.51 611.153 164.76 612.709 166.442C614.264 168.124 615.042 170.151 615.042 172.523C615.042 175.413 613.94 177.677 611.737 179.315C609.533 180.911 606.487 181.709 602.598 181.709Z" fill="#3B6544"/>
<path d="M211 210.004H91C68.9086 210.004 51.0695 192.095 51.1551 170.004V170.004C51.2408 147.913 69.2189 130.005 91.3103 130.005H211.31L211 210.004Z" fill="#3B6544"/>
<path d="M120.461 120.461L75.2302 120.461C50.25 120.461 30.078 100.211 30.1749 75.2306V75.2306C30.2718 50.2505 50.6009 30.0002 75.5811 30.0002V30.0002C100.561 30.0002 120.733 50.2505 120.636 75.2306L120.461 120.461Z" fill="#4A8A57"/>
<path d="M131.164 130.832V90.832C131.164 68.7406 149.073 50.9015 171.164 50.9872V50.9872C193.255 51.0729 211.163 69.0509 211.163 91.1423V131.142L131.164 130.832Z" fill="#3B6544"/>
</svg>
