<svg width="182" height="180" viewBox="0 0 182 180" fill="none" xmlns="http://www.w3.org/2000/svg">
<path d="M181.002 180.004H61.0019C38.9106 180.004 21.0714 162.095 21.1571 140.004V140.004C21.2428 117.913 39.2208 100.005 61.3122 100.005H181.312L181.002 180.004Z" fill="#3B6544"/>
<path d="M90.4609 90.4609L45.2302 90.4609C20.25 90.4609 0.078045 70.2106 0.174933 45.2306V45.2306C0.271821 20.2505 20.6009 0.000180831 45.5811 0.000180648V0.000180648C70.5613 0.000180465 90.7333 20.2505 90.6364 45.2306L90.4609 90.4609Z" fill="#4A8A57"/>
<path d="M101.164 100.832V60.832C101.164 38.7406 119.073 20.9015 141.164 20.9872V20.9872C163.255 21.0729 181.163 39.0509 181.163 61.1423V101.142L101.164 100.832Z" fill="#3B6544"/>
</svg>
